<svg xmlns="http://www.w3.org/2000/svg" width="64" height="64">
    <circle fill="#FFF" cx="32" cy="32" r="32"/>
    <path fill="#5B5B5B" d="M16.6 45c.9 5 29.5 5 30.5 0H16.6zm24.9-19h-20c-.8 0-1.5.7-1.5 1.5v3.3C20 37.7 25 44 30.5 44h2.9c6 0 9.7-6.8 9.7-13.2v-3.3c-.1-.8-.8-1.5-1.6-1.5zM25 34h-1.7c-.1 0-.3-.1-.3-.3v-5.1c0-.2.1-.5.3-.5H25v5.6c0 .2.1.3 0 .3zm9.9-19.8s-2.3 3.1-.2 5.4c2.1 2.3 1.5 4 1.5 4s2.8-2.2 1.6-4.7c-1.3-2.5-2.1-1.1-2.9-4.7m-4.3 2s-1.8 2.4-.2 4.2c1.6 1.8 1.1 3 1.1 3s2.2-1.7 1.2-3.6c-.9-1.9-1.4-.9-2.1-3.6"/>
    <path fill="#5B5B5B" d="M38 39c-.6 0-1-.4-1-1s.4-1 1-1c.1 0 5.4-.1 8.1-4.4.4-1.3.4-2.2-.1-2.7-.9-1-3.1-1-3.8-.9-.6.1-1.1-.3-1.1-.8-.1-.5.3-1.1.8-1.1.4-.1 3.9-.5 5.7 1.6 1 1.1 1.1 2.7.4 4.8 0 .1-.1.1-.1.2-3.3 5.2-9.6 5.3-9.9 5.3z"/>
</svg>
